<?xml version="1.0" encoding="UTF-8"?>
<svg version="1.1" xmlns="http://www.w3.org/2000/svg" width="2000" height="1500">
<path d="M0 0 C660 0 1320 0 2000 0 C2000 495 2000 990 2000 1500 C1340 1500 680 1500 0 1500 C0 1005 0 510 0 0 Z " fill="#0C1A27" transform="translate(0,0)"/>
<path d="M0 0 C13.86 0 27.72 0 42 0 C43.70023625 3.40047251 44.32541975 5.08978216 44.78686523 8.67993164 C44.91179352 9.62162201 45.0367218 10.56331238 45.16543579 11.53353882 C45.29517792 12.56532257 45.42492004 13.59710632 45.55859375 14.66015625 C45.77592667 16.31079575 45.77592667 16.31079575 45.99765015 17.99478149 C46.31519918 20.40755751 46.62978012 22.82072553 46.94180298 25.23422241 C47.80027645 31.86422943 48.68358541 38.49091188 49.5703125 45.1171875 C49.66436937 45.8213574 49.75842625 46.52552731 49.85533333 47.25103569 C52.65226931 68.15272247 55.77446311 89.00793089 58.88130283 109.86537838 C59.44988025 113.68474518 60.01664219 117.50437871 60.58203125 121.32421875 C60.68965979 122.05115244 60.79728832 122.77808613 60.90817833 123.52704811 C62.79848505 136.32794011 64.48956014 149.14830907 66 162 C68.49755032 147.60437747 70.69050057 133.20644649 72.56933594 118.71606445 C73.51600346 111.46773439 74.57620329 104.26715025 75.85351562 97.07080078 C77.40021129 88.08951527 78.44752951 79.02877155 79.5546875 69.98461914 C80.89774161 59.19582729 80.89774161 59.19582729 82 54.00390625 C83.26531731 48.04086007 83.95143281 42.01109262 84.68930054 35.96392822 C88.82820303 2.17179697 88.82820303 2.17179697 91 0 C93.59359322 -0.08851529 96.16039691 -0.11525945 98.75390625 -0.09765625 C99.52935287 -0.0962413 100.3047995 -0.09482635 101.10374451 -0.09336853 C103.59003494 -0.08775345 106.0762366 -0.07519846 108.5625 -0.0625 C110.24413933 -0.05748694 111.92578006 -0.0529237 113.60742188 -0.04882812 C117.73831566 -0.03777913 121.86914276 -0.02050445 126 0 C127.83769087 4.91686023 128.66623757 9.65323491 129.35693359 14.8215332 C129.47759689 15.68933411 129.59826019 16.55713501 129.72257996 17.45123291 C130.11979823 20.31704949 130.50902841 23.18389406 130.8984375 26.05078125 C131.17688452 28.06747757 131.45591697 30.08409314 131.73550415 32.10063171 C132.47202299 37.42177386 133.20215676 42.74377077 133.93048096 48.06604004 C135.22499724 57.52029259 136.52896504 66.97324356 137.8359375 76.42578125 C137.97554398 77.43681097 138.11515045 78.44784069 138.25898743 79.48950768 C140.07954289 92.65556533 142.00174984 105.79236053 144.16845703 118.90649414 C145.49505915 126.93891863 146.6184332 135.0007506 147.75 143.0625 C147.97245 144.63479482 148.19510647 146.20706044 148.41796875 147.77929688 C148.94765998 151.51920371 149.47467308 155.25947775 150 159 C150.33 159 150.66 159 151 159 C151.15580536 157.87177826 151.15580536 157.87177826 151.3147583 156.72076416 C152.31356386 149.48905263 153.31301295 142.25743043 154.31311417 135.02589798 C154.82675025 131.31174465 155.3401717 127.59756196 155.85302734 123.88330078 C157.93815798 108.78341925 160.03165942 93.68483524 162.1796875 78.59375 C162.3364093 77.48896301 162.4931311 76.38417603 162.65460205 75.24591064 C163.94449494 66.22359253 165.38828128 57.22925746 166.85546875 48.234375 C167.79949678 42.35545978 168.6808758 36.46834859 169.55078125 30.578125 C169.68564941 29.66726135 169.82051758 28.75639771 169.95947266 27.81793213 C170.63889734 23.22605252 171.31360026 18.63354588 171.98193359 14.04003906 C172.23128005 12.34958499 172.48078445 10.6591542 172.73046875 8.96875 C172.84385086 8.17833313 172.95723297 7.38791626 173.0740509 6.57354736 C173.88653502 1.11346498 173.88653502 1.11346498 175 0 C178.10251201 -0.08874135 181.1826812 -0.11518455 184.28515625 -0.09765625 C185.21597519 -0.0962413 186.14679413 -0.09482635 187.1058197 -0.09336853 C190.09141191 -0.08775172 193.07693029 -0.0751964 196.0625 -0.0625 C198.08137913 -0.05748716 200.10025943 -0.05292388 202.11914062 -0.04882812 C207.07945572 -0.03777683 212.03971532 -0.02050095 217 0 C216.2994912 10.17735592 214.58304584 20.14192062 212.875 30.1875 C212.55888506 32.06393167 212.24297089 33.94039718 211.92724609 35.81689453 C209.45328693 50.48203445 206.90024653 65.1331941 204.32208252 79.78031921 C202.06570248 92.59940718 199.84235104 105.42410873 197.625 118.25 C197.24235324 120.46272838 196.85970349 122.67545624 196.47705078 124.88818359 C195.70363258 129.36097781 194.93038938 133.83380225 194.15722656 138.30664062 C193.01969503 144.88685984 191.88111262 151.46689687 190.7421875 158.046875 C190.55669342 159.1186348 190.37119934 160.19039459 190.18008423 161.29463196 C189.25148994 166.65962745 188.32255429 172.02456354 187.39306641 177.3894043 C185.62537805 187.59436143 183.8611849 197.79989289 182.1072998 208.00723267 C181.27379758 212.85699348 180.43860342 217.70646225 179.60327148 222.5559082 C179.20349573 224.87965536 178.8045596 227.20354714 178.40649414 229.52758789 C177.85641874 232.73880741 177.30351831 235.94952867 176.75 239.16015625 C176.58689331 240.11688736 176.42378662 241.07361847 176.2557373 242.05934143 C176.02860046 243.37200233 176.02860046 243.37200233 175.796875 244.71118164 C175.66635742 245.47145157 175.53583984 246.2317215 175.40136719 247.01502991 C175 249 175 249 174 252 C158.49 252 142.98 252 127 252 C123.91512552 233.01835937 121.04659043 214.01285926 118.2645874 194.98522949 C117.82753623 191.99853643 117.38896561 189.01206736 116.95035934 186.02560234 C115.62748932 177.01795103 114.31139771 168.00932886 113 159 C112.83632935 157.8772467 112.67265869 156.75449341 112.50402832 155.59771729 C112.07751973 152.66699071 111.65339373 149.73593307 111.23046875 146.8046875 C111.1115477 145.98804626 110.99262665 145.17140503 110.87010193 144.33001709 C110.13700112 139.21849731 109.5612143 134.11501043 109.2109375 128.9609375 C109.04757768 126.78781693 109.04757768 126.78781693 108 124 C107.86537354 125.23476074 107.73074707 126.46952148 107.59204102 127.74169922 C105.18278354 149.06593439 102.0061001 170.28536826 98.90209961 191.51708984 C98.09087155 197.06721866 97.28699261 202.61838539 96.48494625 208.16984749 C95.86116563 212.48034206 95.2329665 216.79018401 94.60348701 221.0998497 C94.3049706 223.14808257 94.00795408 225.19653466 93.71250725 227.24521255 C93.30112336 230.09401693 92.88363387 232.94186306 92.46459961 235.78955078 C92.34559296 236.62277863 92.2265863 237.45600647 92.10397339 238.31448364 C91.40391603 243.02072303 90.41200598 247.45474333 89 252 C82.46721214 252.02527002 75.93443679 252.04283292 69.40161133 252.05493164 C67.17732268 252.05997317 64.95303737 252.06680623 62.72875977 252.07543945 C59.53921691 252.08751298 56.34971771 252.09322996 53.16015625 252.09765625 C51.65860741 252.10539818 51.65860741 252.10539818 50.12672424 252.11329651 C49.20584518 252.11337204 48.28496613 252.11344757 47.33618164 252.11352539 C46.52121719 252.115746 45.70625275 252.11796661 44.86659241 252.12025452 C43 252 43 252 42 251 C41.5040083 248.43400799 41.06264085 245.87699338 40.65234375 243.296875 C40.5203508 242.48963989 40.38835785 241.68240479 40.25236511 240.85070801 C39.96379808 239.08550412 39.67689456 237.32002769 39.39141846 235.55432129 C38.61093293 230.73245924 37.816021 225.91299089 37.01953125 221.09375 C36.85366516 220.08983215 36.68779907 219.08591431 36.51690674 218.05157471 C34.80953934 207.76808505 32.97257611 197.50904502 31.125 187.25 C28.11683677 170.52124651 25.27006402 153.76975685 22.5 137 C19.60066633 119.44785498 16.60057747 101.91930188 13.44891357 84.41073608 C10.35044933 67.18376466 7.44999688 49.92663387 4.61303711 32.65478516 C4.45269485 31.68185013 4.2923526 30.7089151 4.12715149 29.70649719 C3.83055044 27.90547823 3.53540142 26.10421917 3.24211121 24.30265808 C2.42483021 19.33995901 1.48407687 14.43060296 0.3789978 9.52323914 C0 7 0 7 0 0 Z " fill="#EEFDD3" transform="translate(265,813)"/>
<path d="M0 0 C16.60967311 12.14582346 28.40478931 28.51036861 32.18994141 49.04309082 C33.57412888 59.23083762 33.13768575 69.67387173 33.09980202 79.93905258 C33.08953312 83.60171375 33.09910557 87.26433881 33.10534668 90.92700195 C33.11258333 97.07282825 33.10314109 103.21846103 33.08398438 109.36425781 C33.0622232 116.42626999 33.06927743 123.4878199 33.09129 130.5498209 C33.10955868 136.65993683 33.11194687 142.76991523 33.10153532 148.88004971 C33.09536278 152.50886525 33.09428915 156.13746499 33.10768127 159.76626587 C33.18794001 185.00370078 31.25939357 206.20924888 13.5625 225.78515625 C12.93601562 226.49285156 12.30953125 227.20054687 11.6640625 227.9296875 C0.20770947 240.15759084 -16.64851084 248.22612609 -33.375 249.10546875 C-52.75551534 249.71728087 -70.38509584 244.65568515 -84.875 231.41015625 C-101.05289653 215.91553325 -109.33184461 197.86520449 -109.90332794 175.54894829 C-109.98588461 169.41918847 -109.99702739 163.29159382 -109.97480202 157.1615386 C-109.96453946 153.43654874 -109.97410348 149.71159457 -109.98034668 145.98660278 C-109.98758331 139.73822847 -109.97813923 133.49004451 -109.95898438 127.24169922 C-109.93720407 120.05468195 -109.94429131 112.86811855 -109.96629 105.68111217 C-109.98453577 99.46741964 -109.98695842 93.25386242 -109.97653532 87.04015172 C-109.97035286 83.34768509 -109.969318 79.6554307 -109.98268127 75.96297836 C-109.99655474 71.84337927 -109.97724155 67.72454343 -109.95507812 63.60498047 C-109.96317505 62.40875061 -109.97127197 61.21252075 -109.97961426 59.9800415 C-109.80695739 42.52273683 -103.04478919 25.8116773 -91.4375 12.78515625 C-90.86773438 12.12257813 -90.29796875 11.46 -89.7109375 10.77734375 C-66.82167967 -14.05993603 -28.04429804 -18.81359597 0 0 Z " fill="#EEFDD3" transform="translate(1085.4375,820.21484375)"/>
<path d="M0 0 C9.13700183 7.08088764 16.57469901 15.17746687 22.08984375 25.39453125 C22.56035156 26.25433594 23.03085938 27.11414063 23.515625 28 C31.60725225 44.15938539 30.55489182 61.85234633 30.52575183 79.44703364 C30.5226271 82.36655674 30.52878832 85.28603295 30.53479058 88.2055493 C30.54875964 95.10313825 30.54733828 102.00060314 30.53588867 108.89819336 C30.52441185 115.96755453 30.5384931 123.0365361 30.56528515 130.1058473 C30.58757338 136.22017644 30.59405034 142.33438757 30.58820873 148.44875437 C30.58486945 152.08095414 30.58704887 155.71291078 30.60445976 159.34507561 C30.72160281 186.38313562 27.8385062 208.3661427 8.08984375 228.39453125 C-6.42150195 242.34774827 -24.43503028 247.76831112 -44.1171875 247.53515625 C-64.24174351 246.78903471 -80.55139181 237.43034157 -94.28515625 223.08203125 C-107.45771375 207.30888299 -112.22834731 189.53650422 -112.18481445 169.32080078 C-112.18992538 168.07357239 -112.19503632 166.82634399 -112.20030212 165.5413208 C-112.21172983 162.15682012 -112.21428645 158.77256628 -112.21173882 155.38806391 C-112.21065968 152.54555699 -112.21557632 149.70307199 -112.22034425 146.86056983 C-112.23139165 140.14579899 -112.23190381 133.4310841 -112.22583008 126.71630859 C-112.21979368 119.82710147 -112.23210375 112.93809875 -112.25340015 106.04892647 C-112.27110671 100.09860802 -112.27700335 94.1483541 -112.2737624 88.19801033 C-112.27196381 84.65976313 -112.27444124 81.1216618 -112.28847694 77.58343887 C-112.30357214 73.63123023 -112.29400654 69.6792752 -112.2824707 65.72705078 C-112.29011444 64.58064117 -112.29775818 63.43423157 -112.30563354 62.25308228 C-112.17270712 41.48793236 -104.64677005 22.97984655 -90.4921875 7.8125 C-65.24202456 -15.83326529 -28.72288508 -19.92488425 0 0 Z " fill="#EEFDD3" transform="translate(1391.91015625,821.60546875)"/>
<path d="M0 0 C10.64124787 -0.11670472 21.28233937 -0.20512152 31.92410088 -0.25906086 C36.86743925 -0.28497084 41.81033451 -0.32002142 46.75341797 -0.37719727 C51.53862888 -0.43219012 56.32341812 -0.46155967 61.10892105 -0.47438622 C62.9194819 -0.48350709 64.73002405 -0.50131121 66.54040146 -0.52865028 C89.98013301 -0.86800469 109.96856736 5.4131199 127.11328125 22.05078125 C143.05525943 38.98332895 146.75762773 56.15380627 146.37109375 78.62109375 C145.66978448 96.16147609 136.87656545 111.52056321 125 124 C126.3102568 127.64816598 127.90959495 130.4216294 130.25 133.5 C141.82429082 149.77634646 143.45874273 166.03978741 143.29296875 185.30078125 C143.28736138 187.23275928 143.28309669 189.16474162 143.28010559 191.09672546 C143.26874659 196.1387852 143.23935821 201.18057846 143.20599365 206.22253418 C143.16964938 212.29502609 143.15608895 218.36760797 143.13863373 224.44017792 C143.10971413 233.62696961 143.05216492 242.81317865 143 252 C128.48 252 113.96 252 99 252 C98.97421875 246.11285156 98.9484375 240.22570313 98.921875 234.16015625 C98.89669254 230.41857694 98.87034889 226.67707734 98.83984375 222.93554688 C98.79159163 217.00382235 98.74751581 211.07228248 98.72900391 205.14038086 C98.7138001 200.35502075 98.67928865 195.57014542 98.63169098 190.78500175 C98.61691551 188.96432153 98.6089612 187.14357209 98.60811615 185.32283211 C98.83760594 172.08435046 98.83760594 172.08435046 94 160 C93.53078125 159.19046875 93.0615625 158.3809375 92.578125 157.546875 C87.14219935 150.19238736 81.78440572 147.50983021 73 145 C63.1 144.67 53.2 144.34 43 144 C43 179.64 43 215.28 43 252 C28.48 252 13.96 252 -1 252 C-1.0286683 238.31247965 -1.05163585 224.62503581 -1.0625 210.9375 C-1.06335602 209.86715641 -1.06421204 208.79681282 -1.06509399 207.69403458 C-1.09745362 161.52370081 -0.82145285 115.35648059 -0.5 69.1875 C-0.49103943 67.8987246 -0.49103943 67.8987246 -0.48189783 66.58391333 C-0.32745953 44.38922963 -0.16695797 22.1945931 0 0 Z " fill="#EFFED3" transform="translate(808,813)"/>
<path d="M0 0 C0.97484848 0.00222061 1.94969696 0.00444122 2.9540863 0.00672913 C4.05515213 0.00680466 5.15621796 0.00688019 6.29064941 0.00695801 C7.48854599 0.01211929 8.68644257 0.01728058 9.92063904 0.02259827 C11.14000656 0.02401321 12.35937408 0.02542816 13.61569214 0.02688599 C17.52856349 0.03250485 21.4413786 0.04506055 25.35423279 0.05775452 C27.99941426 0.06276709 30.64459662 0.06733041 33.28977966 0.07142639 C39.79045005 0.08248041 46.2910874 0.09923688 52.79173279 0.12025452 C54.59268709 6.8343786 55.79433633 13.58138646 56.92845154 20.43666077 C57.12839722 21.62800125 57.3283429 22.81934174 57.53434753 24.04678345 C58.0732209 27.25826217 58.60956031 30.47015274 59.14513779 33.68218231 C60.16106039 39.76556132 61.18751764 45.84717754 62.21360779 51.92884827 C62.3264253 52.59798752 62.43924282 53.26712677 62.55547905 53.95654297 C64.37356574 64.73336494 66.26497706 75.49425537 68.22923279 86.24525452 C71.40504913 103.65646252 74.35136402 121.10561389 77.29173279 138.55775452 C77.41121529 139.26690506 77.53069778 139.9760556 77.65380096 140.70669556 C77.7729763 141.41402328 77.89215164 142.12135101 78.01493835 142.85011292 C78.72535466 147.06651924 79.43604867 151.28287861 80.14720154 155.49916077 C80.26241402 156.18225689 80.3776265 156.86535301 80.49633026 157.56914902 C82.49022003 169.38531236 84.52713503 181.19344649 86.60423279 192.99525452 C86.87778274 194.55229658 87.15130216 196.10934402 87.42478943 197.66639709 C88.35594578 202.96479539 89.28799699 208.26303647 90.22203064 213.56092834 C91.0941804 218.50945646 91.9614184 223.4587991 92.82185364 228.40937805 C93.08921057 229.94237936 93.35837698 231.47506642 93.62953186 233.00740051 C93.99948515 235.0989189 94.36313884 237.19144197 94.72532654 239.28431702 C95.03554749 241.05476379 95.03554749 241.05476379 95.35203552 242.86097717 C95.79173279 246.12025452 95.79173279 246.12025452 95.79173279 252.12025452 C81.60173279 252.12025452 67.41173279 252.12025452 52.79173279 252.12025452 C49.79173279 237.12025452 49.79173279 237.12025452 48.79173279 224.12025452 C32.29173279 224.12025452 15.79173279 224.12025452 -1.20826721 224.12025452 C-1.70326721 230.55525452 -1.70326721 230.55525452 -2.20826721 237.12025452 C-2.50933394 239.70754674 -2.8350015 242.29238816 -3.20826721 244.87025452 C-3.37326721 246.04072327 -3.53826721 247.21119202 -3.70826721 248.41712952 C-4.20826721 251.12025452 -4.20826721 251.12025452 -5.20826721 252.12025452 C-6.55921703 252.21294451 -7.91493812 252.23772778 -9.26905823 252.23377991 C-10.12987503 252.23370438 -10.99069183 252.23362885 -11.87759399 252.23355103 C-12.81300522 252.22838974 -13.74841644 252.22322845 -14.71217346 252.21791077 C-15.66518845 252.21649582 -16.61820343 252.21508087 -17.60009766 252.21362305 C-20.65701886 252.20800604 -23.71386798 252.19545067 -26.77076721 252.18275452 C-28.83782345 252.17774171 -30.90488083 252.17317842 -32.97193909 252.16908264 C-38.05074309 252.15803108 -43.12949291 252.14075506 -48.20826721 252.12025452 C-47.55245063 241.8634113 -45.64807279 231.89501703 -43.77076721 221.80775452 C-43.41698001 219.88538974 -43.06363853 217.96294289 -42.71070862 216.04042053 C-40.92457519 206.32724413 -39.11535601 196.61834622 -37.30905151 186.90890503 C-36.23314324 181.12530834 -35.15803989 175.34156233 -34.08326721 169.55775452 C-33.86850739 168.40288544 -33.65374756 167.24801636 -33.43247986 166.05815125 C-30.89181296 152.38531233 -28.39800738 138.70823181 -26.08326721 124.99525452 C-22.65135494 104.66837547 -18.93631538 84.39464496 -15.20826721 64.12025452 C-14.89254761 62.4018335 -14.89254761 62.4018335 -14.57044983 60.6486969 C-13.21742476 53.28504639 -11.86165053 45.92190891 -10.50257874 38.55937195 C-10.05982581 36.16034634 -9.61751726 33.76123868 -9.17567444 31.36204529 C-8.55541465 27.99597757 -7.93293691 24.63032741 -7.30982971 21.26478577 C-7.12681305 20.26976044 -6.94379639 19.27473511 -6.75523376 18.2495575 C-3.4014448 0.1852308 -3.4014448 0.1852308 0 0 Z " fill="#EEFDD2" transform="translate(688.2082672119141,812.8797454833984)"/>
<path d="M0 0 C1.24438843 0.00737183 1.24438843 0.00737183 2.51391602 0.01489258 C21.5562934 0.37614013 39.11864709 9.06620278 52.39819336 22.47558594 C67.07672941 38.0496551 70.88634426 56.01095129 70.75 76.8125 C70.729375 81.2675 70.70875 85.7225 70.6875 90.3125 C56.4975 90.3125 42.3075 90.3125 27.6875 90.3125 C27.1925 79.9175 27.1925 79.9175 26.6875 69.3125 C24.25118769 60.1988873 20.67144745 52.69383815 12.625 47.375 C9.63775147 45.69220215 7.14820466 44.57205285 3.6875 44.3125 C2.45 44.209375 1.2125 44.10625 -0.0625 44 C-7.58094871 44.11348602 -14.11255106 48.11255106 -19.3125 53.3125 C-23.14585232 58.61062922 -25.42957645 62.90113604 -25.45967102 69.54127502 C-25.46682632 70.62478745 -25.47398163 71.70829987 -25.48135376 72.824646 C-25.48404266 74.01374573 -25.48673157 75.20284546 -25.48950195 76.42797852 C-25.49607315 77.68031784 -25.50264435 78.93265717 -25.50941467 80.22294617 C-25.52916974 84.37910195 -25.54081947 88.53521909 -25.55078125 92.69140625 C-25.55483004 94.12474016 -25.558947 95.55807388 -25.56313133 96.99140739 C-25.58218436 103.72968617 -25.59641213 110.46795401 -25.6047433 117.20625454 C-25.61450039 124.96875306 -25.6407791 132.73096525 -25.68124419 140.49336296 C-25.71148483 146.50202497 -25.72621989 152.51060531 -25.72952431 158.51934189 C-25.73186682 162.10349896 -25.74072119 165.68735024 -25.76598549 169.27142525 C-25.79377206 173.27821728 -25.78941095 177.28437727 -25.7824707 181.29125977 C-25.79528076 182.46618988 -25.80809082 183.64112 -25.82128906 184.85165405 C-25.76789519 193.33500663 -24.05286818 199.90833686 -19.5625 207.125 C-12.74580908 213.75233839 -6.12415112 215.74637234 3.2578125 215.65234375 C10.02211036 214.98207733 15.39966311 212.03202535 20.0625 207.125 C26.0883861 198.9627157 27.30252534 190.6191562 27.4375 180.6875 C27.52 176.93375 27.6025 173.18 27.6875 169.3125 C18.4475 169.3125 9.2075 169.3125 -0.3125 169.3125 C-0.33540553 163.20690345 -0.35533367 157.10145484 -0.36743164 150.99584961 C-0.37247288 148.91706844 -0.37930574 146.83829084 -0.38793945 144.75952148 C-0.40001422 141.77847414 -0.40573024 138.79747351 -0.41015625 135.81640625 C-0.41531754 134.88099503 -0.42047882 133.9455838 -0.42579651 132.98182678 C-0.42587204 132.12100998 -0.42594757 131.26019318 -0.42602539 130.37329102 C-0.428246 129.61162125 -0.43046661 128.84995148 -0.43275452 128.06520081 C-0.3125 126.3125 -0.3125 126.3125 0.6875 125.3125 C2.86555719 125.21820658 5.0467128 125.19507462 7.22680664 125.19897461 C7.90970261 125.19882858 8.59259857 125.19868256 9.29618835 125.1985321 C11.56337614 125.19923124 13.83048274 125.2070236 16.09765625 125.21484375 C17.66564387 125.21670793 19.23363207 125.21813183 20.80162048 125.21913147 C24.93626503 125.22295666 29.07087466 125.23278694 33.20550537 125.24383545 C37.42150398 125.25404956 41.63750822 125.25862909 45.85351562 125.26367188 C54.13152647 125.27440921 62.4095089 125.29148564 70.6875 125.3125 C70.75735011 134.75361568 70.8104876 144.19464088 70.84293652 153.63595963 C70.85851903 158.02107188 70.87961984 162.40600591 70.91381836 166.79101562 C70.94667883 171.03152949 70.9644086 175.27187311 70.97213173 179.51250458 C70.97762777 181.12144394 70.9883586 182.73037516 71.00469017 184.33924103 C71.22344492 206.80541407 64.43954719 224.37586323 49.13671875 240.92578125 C34.39803912 255.28835422 16.86192505 260.75541396 -3.3203125 260.515625 C-22.36100917 259.54682243 -38.74509894 251.60116811 -51.7734375 237.68359375 C-59.57718391 228.57058091 -64.68920042 218.70942412 -68.3125 207.3125 C-68.65390518 206.37796494 -68.99531036 205.44342987 -69.34706116 204.48057556 C-70.95793947 198.76014126 -70.61578424 192.8143381 -70.61889648 186.92016602 C-70.62652787 185.56579639 -70.63495704 184.21143106 -70.64411926 182.85707092 C-70.66598602 179.19123028 -70.67485361 175.52547304 -70.67994571 171.85957456 C-70.68360128 169.56167139 -70.68984779 167.26378965 -70.6969471 164.9658947 C-70.72142312 156.92687914 -70.73448762 148.88792785 -70.73803711 140.84887695 C-70.74166174 133.39338036 -70.77148442 125.93829811 -70.81344169 118.48292786 C-70.84833122 112.05455032 -70.86358882 105.6263087 -70.86428314 99.19783729 C-70.86507023 95.37093568 -70.87354126 91.5444558 -70.90228081 87.71765327 C-71.07466275 63.2480399 -69.31436629 42.09180174 -51.4921875 23.51953125 C-50.77289062 22.79121094 -50.05359375 22.06289063 -49.3125 21.3125 C-48.73757813 20.67699219 -48.16265625 20.04148437 -47.5703125 19.38671875 C-35.5440949 6.41106292 -17.45731368 -0.12381074 0 0 Z " fill="#EEFDD2" transform="translate(1516.3125,808.6875)"/>
<path d="M0 0 C0.86925078 0.00092179 1.73850157 0.00184359 2.63409328 0.00279331 C3.62833813 0.00141865 4.62258297 0.00004398 5.64695644 -0.00137234 C6.74674831 0.00222294 7.84654018 0.00581821 8.97965908 0.00952244 C10.70626011 0.0093034 10.70626011 0.0093034 12.46774197 0.00907993 C16.29326635 0.00977965 20.11874275 0.0175748 23.94425869 0.02539158 C26.58841837 0.02725555 29.2325784 0.02867955 31.87673855 0.0296793 C38.13825661 0.03279234 44.3997573 0.04100535 50.6612677 0.05102879 C57.78811781 0.06219078 64.91496874 0.06770059 72.04182541 0.07272422 C86.70592801 0.08318799 101.37001177 0.10153313 116.03410244 0.12304783 C116.03410244 14.64304783 116.03410244 29.16304783 116.03410244 44.12304783 C90.95410244 44.12304783 65.87410244 44.12304783 40.03410244 44.12304783 C40.03410244 62.93304783 40.03410244 81.74304783 40.03410244 101.12304783 C65.44410244 101.12304783 90.85410244 101.12304783 117.03410244 101.12304783 C117.05472744 108.19742283 117.07535244 115.27179783 117.09660244 122.56054783 C117.10570644 124.79634617 117.11481045 127.03214451 117.12419033 129.33569431 C117.1271094 131.09684279 117.12965798 132.85799194 117.13175869 134.61914158 C117.13687466 135.54247288 117.14199062 136.46580418 117.14726162 137.41711521 C117.14744289 138.7264603 117.14744289 138.7264603 117.14762783 140.06225681 C117.14984844 140.82392658 117.15206905 141.58559635 117.15435696 142.37034702 C117.03410244 144.12304783 117.03410244 144.12304783 116.03410244 145.12304783 C113.69156462 145.21797505 111.3786414 145.24864574 109.03581142 145.23657322 C107.9383157 145.23679226 107.9383157 145.23679226 106.81864834 145.23701572 C104.3891346 145.2363165 101.95969661 145.22852368 99.53019619 145.22070408 C97.8501073 145.21883993 96.17001787 145.21741601 94.48992825 145.21641636 C90.05936601 145.2125909 85.62883634 145.20276039 81.19828701 145.19171238 C75.8869459 145.17970438 70.57559392 145.17509615 65.26424313 145.16925907 C57.18750688 145.15954864 49.11084217 145.14039229 41.03410244 145.12304783 C41.03410244 165.91304783 41.03410244 186.70304783 41.03410244 208.12304783 C66.11410244 208.12304783 91.19410244 208.12304783 117.03410244 208.12304783 C117.03410244 222.64304783 117.03410244 237.16304783 117.03410244 252.12304783 C77.43410244 252.12304783 37.83410244 252.12304783 -2.96589756 252.12304783 C-3.00622891 189.17477446 -3.00622891 189.17477446 -3.01472569 162.9492197 C-3.0166837 156.94588309 -3.01870422 150.9425465 -3.0208292 144.93920994 C-3.02109295 144.18674101 -3.0213567 143.43427207 -3.02162844 142.65900105 C-3.02598328 130.49501261 -3.03387013 118.33102887 -3.04305036 106.16704322 C-3.05238652 93.69283179 -3.05795309 81.21862284 -3.05998605 68.74440807 C-3.06136136 61.0409358 -3.06571235 53.33747682 -3.07381403 45.63400864 C-3.07970171 39.73697708 -3.08035662 33.83995242 -3.07900524 27.94291782 C-3.07928177 25.51643828 -3.08128948 23.08995827 -3.08510303 20.66348171 C-3.09003342 17.3663798 -3.08889828 14.06933609 -3.08615208 10.77223301 C-3.08906492 9.79851783 -3.09197776 8.82480265 -3.09497887 7.82158095 C-3.09298782 6.94525761 -3.09099677 6.06893427 -3.08894539 5.16605568 C-3.08932511 4.40395698 -3.08970483 3.64185827 -3.09009606 2.85666567 C-2.90974124 0.33919288 -2.50849327 0.15700953 0 0 Z " fill="#EEFDD2" transform="translate(506.96589756011963,812.8769521713257)"/>
<path d="M0 0 C14.19 0 28.38 0 43 0 C49.80212479 22.67374929 49.80212479 22.67374929 52.0625 31.6875 C53.76676036 38.34783424 55.5253113 44.97702832 57.5 51.5625 C69 89.91450974 69 89.91450974 69 97 C69.66 97 70.32 97 71 97 C71.15855469 96.19820312 71.31710937 95.39640625 71.48046875 94.5703125 C73.37151735 85.3553685 75.76527841 76.35656382 78.34277344 67.31445312 C79.41239192 63.54774315 80.45497398 59.773591 81.5 56 C81.92047208 54.48695114 82.34104487 52.97393027 82.76171875 51.4609375 C83.55880711 48.59191643 84.35304821 45.72213469 85.14453125 42.8515625 C87.62989723 33.84787367 90.15458299 24.85512583 92.70297241 15.86907959 C93.2446317 13.95645572 93.78309869 12.04292873 94.3215332 10.12939453 C94.6537085 8.96134277 94.98588379 7.79329102 95.328125 6.58984375 C95.6262207 5.53659912 95.92431641 4.48335449 96.23144531 3.39819336 C97 1 97 1 98 0 C99.35094982 -0.09268999 100.70667091 -0.11747326 102.06079102 -0.11352539 C102.92160782 -0.11344986 103.78242462 -0.11337433 104.66932678 -0.11329651 C105.60473801 -0.10813522 106.54014923 -0.10297394 107.50390625 -0.09765625 C108.45692123 -0.0962413 109.40993622 -0.09482635 110.39183044 -0.09336853 C113.44875165 -0.08775152 116.50560077 -0.07519616 119.5625 -0.0625 C121.62955624 -0.05748719 123.69661362 -0.05292391 125.76367188 -0.04882812 C130.84247588 -0.03777656 135.9212257 -0.02050055 141 0 C140.21322623 4.81525971 138.64205021 9.3076415 137.0793457 13.91308594 C136.77981995 14.80380798 136.48029419 15.69453003 136.17169189 16.61224365 C135.1760149 19.5706272 134.17593686 22.52750284 133.17578125 25.484375 C132.47063628 27.57610969 131.76574084 29.66792851 131.06108093 31.75982666 C129.57407025 36.17221866 128.08506934 40.58393204 126.59448242 44.99511719 C124.72852886 50.51716169 122.86558206 56.04021216 121.00455856 61.56392002 C120.27667922 63.72318539 119.54802453 65.88218955 118.81859207 68.04093075 C116.99209989 73.44738188 115.17609582 78.85692246 113.38079834 84.27381897 C110.11553055 94.08465444 106.76122496 103.79042544 102.84277344 113.36108398 C91.6969529 141.0820908 91.09901067 167.23566383 91.57513428 196.87994385 C91.65967942 203.12355575 91.66167733 209.36723073 91.671875 215.61132812 C91.70322657 227.74257797 91.82928425 239.86991098 92 252 C77.48 252 62.96 252 48 252 C48.41378906 241.98011719 48.41378906 241.98011719 48.8359375 231.7578125 C50.57203411 173.20864823 44.73848333 124.61078549 22.91619873 70.17526245 C15.572767 51.82128654 9.62624045 33.03149651 3.70303917 14.18041992 C2.70543855 11.08644114 1.63523735 8.01782921 0.55782795 4.95080566 C0 3 0 3 0 0 Z " fill="#EEFDD2" transform="translate(1592,813)"/>
<path d="M0 0 C1.36560059 0.00303635 1.36560059 0.00303635 2.75878906 0.00613403 C3.68723633 0.00517731 4.61568359 0.00422058 5.57226562 0.00323486 C7.53938871 0.00255298 9.50651403 0.00440781 11.47363281 0.00857544 C14.49581932 0.01392358 17.51785721 0.00863071 20.54003906 0.00222778 C22.44628939 0.00288856 24.35253963 0.00416972 26.25878906 0.00613403 C27.16918945 0.0041098 28.07958984 0.00208557 29.01757812 0 C35.39383938 0.02399685 35.39383938 0.02399685 36.50878906 1.13894653 C36.60661882 3.80702586 36.63872935 6.44920692 36.62904358 9.11772156 C36.629898 9.96387132 36.63075243 10.81002108 36.63163275 11.68181175 C36.63329015 14.53937053 36.62776195 17.39687161 36.62231445 20.25442505 C36.62203261 22.29395547 36.62219026 24.33348599 36.62275696 26.37301636 C36.62304505 31.9285739 36.61714644 37.48411005 36.610183 43.0396626 C36.6039514 48.83862021 36.60334582 54.63757825 36.60215759 60.4365387 C36.5990437 71.4260848 36.59082954 82.41562101 36.5808081 93.40516275 C36.56964875 105.91280638 36.56413697 118.42045048 36.55911267 130.92809784 C36.54864697 156.66505416 36.53030078 182.40199691 36.50878906 208.13894653 C61.58878906 208.13894653 86.66878906 208.13894653 112.50878906 208.13894653 C112.50878906 222.65894653 112.50878906 237.17894653 112.50878906 252.13894653 C72.90878906 252.13894653 33.30878906 252.13894653 -7.49121094 252.13894653 C-7.53154229 189.19067316 -7.53154229 189.19067316 -7.54003906 162.96511841 C-7.54199707 156.96178179 -7.54401759 150.9584452 -7.54614258 144.95510864 C-7.54640633 144.20263971 -7.54667008 143.45017078 -7.54694182 142.67489976 C-7.55129665 130.51091131 -7.55918351 118.34692757 -7.56836373 106.18294192 C-7.5776999 93.7087305 -7.58326647 81.23452155 -7.58529943 68.76030678 C-7.58667474 61.05683451 -7.59102573 53.35337552 -7.5991274 45.64990734 C-7.60501509 39.75287578 -7.60567 33.85585112 -7.60431862 27.95881653 C-7.60459515 25.53233699 -7.60660286 23.10585698 -7.61041641 20.67938042 C-7.6153468 17.38227851 -7.61421166 14.0852348 -7.61146545 10.78813171 C-7.6143783 9.81441653 -7.61729114 8.84070135 -7.62029225 7.83747965 C-7.6183012 6.96115631 -7.61631015 6.08483297 -7.61425877 5.18195438 C-7.61463849 4.41985568 -7.61501821 3.65775698 -7.61540943 2.87256438 C-7.31135527 -1.37155884 -3.37349456 0.01269603 0 0 Z " fill="#EEFDD3" transform="translate(1153.4912109375,812.8610534667969)"/>
<path d="M0 0 C7.90816938 4.07722228 13.42255079 10.81579192 16.2578125 19.1640625 C17.06734571 22.60438774 17.38785289 25.79224529 17.40498352 29.32290649 C17.41213882 30.34040985 17.41929413 31.35791321 17.42666626 32.40625 C17.42935516 33.51178223 17.43204407 34.61731445 17.43481445 35.75634766 C17.44467125 37.51584244 17.44467125 37.51584244 17.45472717 39.31088257 C17.47443215 43.19162349 17.48612414 47.07235082 17.49609375 50.953125 C17.50014462 52.29419347 17.50426164 53.63526174 17.50844383 54.9763298 C17.52748055 61.28051359 17.54171317 67.5846858 17.5500558 73.88889277 C17.55981439 81.14141564 17.58610387 88.39363219 17.62655669 95.64604723 C17.65682505 101.26750737 17.67153488 106.88888023 17.67483681 112.5104202 C17.67717568 115.86047449 17.68798972 119.20994206 17.71129799 122.5599556 C17.73573595 126.30535266 17.73471515 130.04995719 17.7277832 133.79541016 C17.74059326 134.888797 17.75340332 135.98218384 17.76660156 137.10870361 C17.69719816 147.44774656 15.23723784 155.95363822 7.98828125 163.51171875 C1.20483483 169.98891477 -4.05339313 171.71444047 -13.38671875 171.53515625 C-20.48111935 170.75056014 -25.7280415 167.58323406 -30.6171875 162.4765625 C-37.09325731 154.09391016 -38.33365274 145.89305088 -38.25976562 135.51342773 C-38.2667749 134.28772064 -38.27378418 133.06201355 -38.28100586 131.79916382 C-38.29550497 128.46625898 -38.29223445 125.13435909 -38.27948952 121.80151248 C-38.26928718 118.2970294 -38.27877489 114.79258615 -38.28503418 111.2881012 C-38.29228877 105.40658963 -38.28277978 99.52527971 -38.26367188 93.64379883 C-38.24189699 86.86351261 -38.24896744 80.0837075 -38.2709775 73.30343288 C-38.2891822 67.45936061 -38.2916655 61.6154324 -38.28122282 55.77134091 C-38.27501688 52.29076801 -38.2740717 48.81042061 -38.28736877 45.32986259 C-38.30116567 41.44815521 -38.28199499 37.56697853 -38.25976562 33.68530273 C-38.26786255 32.54582687 -38.27595947 31.40635101 -38.28430176 30.23234558 C-38.17791748 20.17314192 -35.37585855 13.24716951 -28.546875 5.890625 C-20.82761627 -1.49446668 -10.17466868 -3.10167963 0 0 Z " fill="#0F1D29" transform="translate(1361.7421875,853.8359375)"/>
<path d="M0 0 C5.41585393 4.86684956 9.59871381 12.08063455 10.0148077 19.39519501 C10.02167882 20.31983803 10.02854994 21.24448105 10.03562927 22.19714355 C10.0456749 23.26231201 10.05572052 24.32748047 10.06607056 25.42492676 C10.07190155 26.58858765 10.07773254 27.75224854 10.08374023 28.95117188 C10.09841591 30.79582031 10.09841591 30.79582031 10.11338806 32.67773438 C10.14333838 36.75389665 10.16504033 40.83002389 10.18359375 44.90625 C10.18853973 45.94905089 10.18853973 45.94905089 10.19358563 47.01291847 C10.2243754 53.5791477 10.25106241 60.14538177 10.26800442 66.71166229 C10.28986919 75.08551958 10.33175563 83.45873237 10.40144199 91.83233213 C10.44886515 97.73318454 10.47296256 103.63386427 10.4802013 109.53490114 C10.48513202 113.05222026 10.49996137 116.56881225 10.5399456 120.08592224 C10.58408398 124.02035741 10.57987468 127.95398174 10.57202148 131.88867188 C10.59202209 133.03613892 10.61202271 134.18360596 10.63262939 135.36584473 C10.5513984 144.48127095 8.01552234 152.32582051 1.83597469 159.2085495 C-4.96799498 165.62895369 -11.6355383 167.60543991 -20.91015625 167.33984375 C-29.06313831 166.31948269 -34.0318935 161.48386349 -39.3984375 155.609375 C-44.31350505 148.00325237 -44.56363011 140.14485328 -44.52905273 131.30859375 C-44.53591599 130.07327911 -44.54277924 128.83796448 -44.54985046 127.56521606 C-44.56493999 124.2014271 -44.56663386 120.83819585 -44.56090808 117.47441483 C-44.55780162 114.65643052 -44.56392462 111.83849555 -44.56994683 109.0205183 C-44.58395541 102.36877972 -44.58246085 95.71716968 -44.57104492 89.06542969 C-44.55956106 82.22326469 -44.57365193 75.38149156 -44.6004414 68.53937817 C-44.62265078 62.64438477 -44.62922422 56.74951392 -44.62336498 50.8544817 C-44.62000742 47.3425793 -44.6223301 43.83092813 -44.63961601 40.31906128 C-44.65806125 36.40135522 -44.6438442 32.48412562 -44.62670898 28.56640625 C-44.63637695 27.41600861 -44.64604492 26.26561096 -44.65600586 25.08035278 C-44.56951235 15.61336579 -42.21852406 8.47815537 -35.76953125 1.44140625 C-25.64909116 -7.81362804 -10.98395144 -7.24940795 0 0 Z " fill="#0C1A27" transform="translate(1064.125,858.0625)"/>
<path d="M0 0 C20.64928417 11.27537649 34.58882869 32.55508533 41.10546875 54.6328125 C47.47606519 78.14862285 42.11943005 100.63077243 31.51171875 122.0390625 C29.81947953 124.91883801 28.3233647 126.97525257 25.73046875 129.0703125 C22.98046875 128.8203125 22.98046875 128.8203125 20.73046875 128.0703125 C20.2182495 122.30784594 21.59652526 118.15377868 23.7578125 112.81640625 C29.09196439 97.75653163 25.89894281 78.24855861 19.14697266 64.08227539 C11.87310803 50.06240015 0.97774722 40.81070278 -12.58203125 33.0078125 C-17.73099578 29.97996229 -21.32683936 26.89838817 -23.26953125 21.0703125 C-23.85651968 15.80418776 -24.23711759 10.72360882 -21.26953125 6.1328125 C-15.9121681 -0.14511164 -7.86032287 -3.2198913 0 0 Z " fill="#ECFBD1" transform="translate(992.26953125,427.9296875)"/>
<path d="M0 0 C5.28493805 1.76164602 7.84136626 4.57791276 11 9 C13.18404921 14.04011355 12.45760553 19.65006367 10.75 24.6875 C-0.16559163 44.25100753 -21.68065914 57.63239996 -42.52734375 64.03515625 C-67.5944903 70.99981901 -90.25353017 65.63758273 -112.72265625 53.4296875 C-114.84131114 52.09962285 -116.45384317 50.96361917 -118 49 C-117.6875 46.3125 -117.6875 46.3125 -117 44 C-112.46172036 42.60231091 -109.97531673 43.51609023 -105.6875 45.375 C-100.74245863 47.36959211 -96.35349551 48.86178583 -91 49 C-89.89011719 49.05027344 -88.78023437 49.10054687 -87.63671875 49.15234375 C-68.45502743 49.64217244 -49.33792512 43.25853589 -35.0078125 30.17578125 C-29.5053278 24.21297195 -25.05514541 17.1734037 -21.3125 10 C-16.48298334 0.87757965 -9.75879515 -0.74642343 0 0 Z " fill="#ECFBD1" transform="translate(1142,550)"/>
<path d="M0 0 C1.2375 0.1546875 1.2375 0.1546875 2.5 0.3125 C4.7992879 3.76143184 5.19234752 6.75925131 5.8125 10.75 C7.7645435 21.92289717 11.28586415 30.62000239 18.828125 39.25390625 C20.5 41.3125 20.5 41.3125 21.5 44.3125 C22.81378334 45.01691149 24.1505142 45.67916731 25.5 46.3125 C26.73825495 47.36150201 27.94529732 48.44805747 29.125 49.5625 C37.36969612 56.86581277 45.90429591 60.51282209 56.5 63.3125 C57.11270752 63.48885986 57.72541504 63.66521973 58.35668945 63.84692383 C60.83422072 64.3851004 63.14097346 64.47386469 65.67578125 64.5234375 C66.66900391 64.55179688 67.66222656 64.58015625 68.68554688 64.609375 C70.75828941 64.6611612 72.83123179 64.70551926 74.90429688 64.7421875 C81.70288137 64.95313259 87.18810852 65.35027037 92.4609375 70.06640625 C93.16089844 70.96166016 93.16089844 70.96166016 93.875 71.875 C94.35710937 72.47441406 94.83921875 73.07382812 95.3359375 73.69140625 C98.35852596 77.90071568 97.91689844 82.30199843 97.5 87.3125 C95.70646165 92.59347404 92.89000798 95.11145251 88.5 98.3125 C74.19644501 103.08035166 57.08169327 96.9104311 44.1875 90.625 C23.43527312 79.97155972 8.2160119 62.83367567 0.2421875 40.84375 C-0.75625774 37.67830881 -1.67944307 34.52861651 -2.5 31.3125 C-2.67805176 30.64549072 -2.85610352 29.97848145 -3.03955078 29.29125977 C-4.49484299 23.43845416 -4.80351234 17.89067928 -4.75 11.875 C-4.75773438 10.97845703 -4.76546875 10.08191406 -4.7734375 9.15820312 C-4.77085937 8.30291016 -4.76828125 7.44761719 -4.765625 6.56640625 C-4.76336914 5.79627197 -4.76111328 5.0261377 -4.75878906 4.23266602 C-4.33184977 1.06485701 -3.05157856 0.38144732 0 0 Z " fill="#ECFBD1" transform="translate(1000.5,609.6875)"/>
<path d="M0 0 C1.35931641 -0.01836914 1.35931641 -0.01836914 2.74609375 -0.03710938 C4.05126953 -0.04000977 4.05126953 -0.04000977 5.3828125 -0.04296875 C6.17316895 -0.04707764 6.96352539 -0.05118652 7.77783203 -0.05541992 C9.875 0.1875 9.875 0.1875 12.875 2.1875 C12.545 3.8375 12.215 5.4875 11.875 7.1875 C8.0111438 8.54944931 4.16107025 9.62327074 0.16650391 10.53027344 C-11.92270015 13.31186021 -20.74757024 17.95140215 -30.125 26.1875 C-31.176875 27.09628906 -31.176875 27.09628906 -32.25 28.0234375 C-42.79695626 37.78761185 -51.48493004 53.25752127 -52.2668457 67.83129883 C-52.27804443 68.75966553 -52.28924316 69.68803223 -52.30078125 70.64453125 C-52.32462891 71.67513672 -52.34847656 72.70574219 -52.37304688 73.76757812 C-52.41577801 75.91060913 -52.44715698 78.05389862 -52.46679688 80.19726562 C-52.63845758 86.60460117 -53.23585318 91.91279302 -57.125 97.1875 C-62.54115746 101.49831921 -67.25124504 102.88245684 -74.125 102.1875 C-79.31995951 100.54242949 -82.17115248 98.78237393 -85.125 94.1875 C-90.36110661 82.80465954 -86.06195861 69.42015663 -82.125 58.1875 C-78.19018088 48.31710627 -72.8123508 39.44137588 -66.125 31.1875 C-65.20460938 30.02154297 -65.20460938 30.02154297 -64.265625 28.83203125 C-51.67914591 13.72305531 -34.01734341 5.26051435 -15.125 1.1875 C-14.36832031 0.99414062 -13.61164063 0.80078125 -12.83203125 0.6015625 C-8.56440662 -0.05120548 -4.31061459 0.00309226 0 0 Z " fill="#ECFBD1" transform="translate(959.125,576.8125)"/>
<path d="M0 0 C5.30199302 3.88812822 7.96048759 8.81373002 10.1171875 14.8984375 C10.36871582 15.59799561 10.62024414 16.29755371 10.87939453 17.01831055 C19.17270374 40.89583884 17.75258216 65.1438067 6.81640625 87.859375 C6.21306498 89.06228076 5.60531743 90.2629915 4.9921875 91.4609375 C4.50363281 92.42257812 4.01507812 93.38421875 3.51171875 94.375 C-4.40016919 108.16487152 -17.30268462 118.79411697 -31.0078125 126.4609375 C-31.74128906 126.87472656 -32.47476562 127.28851562 -33.23046875 127.71484375 C-35.72961436 128.76393564 -37.4555559 128.16989767 -40.0078125 127.4609375 C-40.5028125 124.9859375 -40.5028125 124.9859375 -41.0078125 122.4609375 C-40.17378906 121.81769531 -39.33976562 121.17445313 -38.48046875 120.51171875 C-26.38892972 110.91703209 -18.71241715 100.38652636 -14.0078125 85.4609375 C-13.68941406 84.53152344 -13.37101562 83.60210938 -13.04296875 82.64453125 C-7.69467263 64.92367913 -11.08960865 47.31906448 -19.48046875 31.19921875 C-20.44774777 29.46504331 -21.45173582 27.75042838 -22.50390625 26.06640625 C-25.92867077 20.52663134 -27.19803467 15.97935053 -26.0078125 9.4609375 C-23.61542239 4.58414228 -20.29212295 1.65138146 -16.0078125 -1.5390625 C-10.00461561 -3.54012813 -5.51807801 -2.67890094 0 0 Z " fill="#ECFBD1" transform="translate(1065.0078125,440.5390625)"/>
<path d="M0 0 C1.19496094 0.42410156 2.38992188 0.84820312 3.62109375 1.28515625 C24.79833114 9.61224083 39.20883819 24.89495828 50.296875 44.265625 C51.29829067 46.73578365 50.69715626 48.49023745 50 51 C47.9140625 51.9375 47.9140625 51.9375 45 52 C42.43628613 49.99431849 40.45965914 47.48679513 38.375 45 C27.34695762 32.59668572 12.46933252 23.89406793 -4.47338867 22.84716797 C-22.85290712 22.06533019 -35.44817425 24.58809032 -51.28295898 34.02392578 C-56.86620053 37.21887634 -61.57243415 38.52627818 -68 37 C-72.28405608 35.60407161 -74.66197984 33.45365863 -77.375 29.8125 C-79.73242427 25.0156541 -80.90152783 20.00155736 -79.3359375 14.7890625 C-75.87991479 7.23076892 -70.03151709 4.17424942 -62.5234375 1.23828125 C-42.54036785 -5.78459356 -20.16811293 -7.16939563 0 0 Z " fill="#ECFBD1" transform="translate(937,505)"/>
<path d="M0 0 C2.625 0.375 2.625 0.375 5 1 C6.16546125 5.11994265 5.79841367 7.37913837 4.1875 11.3125 C-2.47580582 27.79035014 -1.08512055 43.5682678 5.1328125 59.9921875 C11.60482779 75.12213054 20.69944716 85.91286483 34.88671875 94.17578125 C47.52754678 101.58264033 47.52754678 101.58264033 50 109 C50.53570806 113.61060212 50.47334402 117.05331196 48.375 121.25 C44.62842163 125.58814338 40.95907238 129.53197013 34.984375 130.23828125 C34.24703125 130.26277344 33.5096875 130.28726563 32.75 130.3125 C32.02296875 130.34988281 31.2959375 130.38726563 30.546875 130.42578125 C19.3063369 128.54661154 7.26929737 115.34716763 0.796875 106.67578125 C-13.73692582 85.03305611 -21.25417539 60.76896312 -16.27734375 34.5 C-13.44581872 23.31146385 -8.32077022 8.32077022 0 0 Z " fill="#EDFCD1" transform="translate(982,605)"/>
<path d="M0 0 C0.94875 0.825 1.8975 1.65 2.875 2.5 C2 7.375 2 7.375 0.875 8.5 C-4.59785611 8.1430746 -9.20728898 6.46708441 -14.28125 4.4375 C-30.18464424 -0.80537722 -47.69459001 2.76670164 -62.4375 9.6875 C-75.82638579 16.84651743 -85.01073907 26.60257527 -92.1875 39.8125 C-95.11623386 45.19507656 -97.6151236 48.63910264 -103.125 51.5 C-107.57752244 52.7957536 -111.81852698 53.50019017 -116.21484375 51.59375 C-120.73622569 48.96680183 -124.02325787 46.40406497 -126.125 41.5 C-127.37519551 34.50079936 -127.04395355 28.92961475 -122.9375 23 C-121.3822684 21.12497561 -119.77269082 19.29431791 -118.125 17.5 C-117.41754639 16.71061035 -117.41754639 16.71061035 -116.69580078 15.90527344 C-87.70008785 -16.149059 -36.37641003 -27.1052542 0 0 Z " fill="#EDFCD1" transform="translate(973.125,560.5)"/>
<path d="M0 0 C1 1 1 1 1.37890625 3.29296875 C1 6 1 6 -1.16015625 8.17578125 C-2.59681641 9.23345703 -2.59681641 9.23345703 -4.0625 10.3125 C-16.81101635 20.26972788 -25.86035725 34.66847978 -28 51 C-29.27949817 69.29584206 -27.29731222 85.36679067 -17.1875 101.125 C-13.70859331 106.85496396 -12.83330766 111.39587916 -14 118 C-15.88757345 123.46402839 -18.94093842 126.2429357 -23.890625 129.0859375 C-28.0611702 130.89317375 -32.73703976 130.81767118 -37 129.27734375 C-43.70757009 125.70671915 -46.58479941 120.41615352 -49.0625 113.5 C-49.31854004 112.78787354 -49.57458008 112.07574707 -49.83837891 111.34204102 C-50.57938378 109.23435146 -51.29505764 107.11999148 -52 105 C-52.34675781 103.96746094 -52.69351563 102.93492187 -53.05078125 101.87109375 C-58.53736313 82.3430227 -55.81368591 59.05792545 -47 41 C-46.59265625 40.11183594 -46.1853125 39.22367188 -45.765625 38.30859375 C-38.40946244 23.44481822 -18.11086278 -1.64644207 0 0 Z " fill="#EDFCD1" transform="translate(975,594)"/>
<path d="M0 0 C0.76828125 0.19335938 1.5365625 0.38671875 2.328125 0.5859375 C25.18534882 7.30351855 44.57910771 23.25000986 56 44 C62.46359722 57.27597271 65.17729045 70.21408755 65.1875 84.875 C65.19974609 85.82375 65.21199219 86.7725 65.22460938 87.75 C65.22654297 88.65492188 65.22847656 89.55984375 65.23046875 90.4921875 C65.23457764 91.31058105 65.23868652 92.12897461 65.24291992 92.97216797 C65 95 65 95 63 97 C60.375 96.625 60.375 96.625 58 96 C57.62875 94.205625 57.62875 94.205625 57.25 92.375 C52.68057246 72.1933617 44.94756891 54.72574502 27 43 C24.39506979 41.47825296 21.74751556 40.06248908 19.0625 38.6875 C18.11491821 38.19890503 18.11491821 38.19890503 17.14819336 37.70043945 C6.2472135 32.38609084 -4.15127356 31.56760987 -16.12304688 31.56054688 C-22.41296511 31.4495258 -26.20132847 31.19982253 -31 27 C-31.7425 26.38125 -32.485 25.7625 -33.25 25.125 C-36.69065697 20.9470594 -37.47358434 16.23479855 -37.3125 10.94921875 C-36.36107087 5.01467953 -31.49094272 1.41702164 -27 -2 C-19.2593891 -5.87030545 -7.81806047 -2.00127385 0 0 Z " fill="#EDFCD1" transform="translate(939,456)"/>
<path d="M0 0 C3.37920128 0.31597616 4.83802486 1.5479355 6.9609375 4.09765625 C7.5079834 4.7309082 8.0550293 5.36416016 8.61865234 6.01660156 C9.19824707 6.69174805 9.7778418 7.36689453 10.375 8.0625 C16.86588821 15.32419192 23.16416311 19.89367278 32 24 C32.71414063 24.34160156 33.42828125 24.68320312 34.1640625 25.03515625 C50.88415226 32.1145134 70.25226237 31.97308516 87.00488281 25.18798828 C92.49174702 22.72345567 97.71541962 19.85253973 102.75 16.5625 C107.29934028 14.37531717 111.04953581 14.00538619 116 15 C120.66521255 17.09898623 124.03878618 19.68925388 127.0625 23.8125 C128.75332496 29.56130486 128.86813007 34.67173805 126.5 40.25 C122.36289147 47.31841723 114.39124378 49.89818263 106.9375 52.25 C106.17373047 52.50523437 105.40996094 52.76046875 104.62304688 53.0234375 C83.48674776 59.89409076 58.56121167 57.84717472 38.75 48.25 C21.60907548 39.43654222 5.36705458 25.29881298 -2 7 C-2.25390625 4.36328125 -2.25390625 4.36328125 -2 2 C-1.34 1.34 -0.68 0.68 0 0 Z " fill="#EDFCD1" transform="translate(1015,605)"/>
<path d="M0 0 C4.55368077 2.66057753 7.1794534 5.41219953 9.7734375 10.09375 C12.72421377 28.44931417 4.53272484 48.69184254 -5.3515625 63.78125 C-17.08889513 79.80836918 -31.3045221 90.76980492 -50.2265625 97.09375 C-51.061875 97.40054688 -51.8971875 97.70734375 -52.7578125 98.0234375 C-60.95111445 100.96965909 -68.97141363 101.25676828 -77.6015625 101.21875 C-78.50261719 101.22261719 -79.40367188 101.22648438 -80.33203125 101.23046875 C-81.19183594 101.22917969 -82.05164062 101.22789062 -82.9375 101.2265625 C-83.71399902 101.22543457 -84.49049805 101.22430664 -85.29052734 101.22314453 C-87.2265625 101.09375 -87.2265625 101.09375 -89.2265625 100.09375 C-89.3515625 97.71875 -89.3515625 97.71875 -89.2265625 95.09375 C-86.46150605 92.32869355 -83.50461868 92.34809467 -79.7890625 91.78125 C-62.84570192 88.87008462 -48.13018648 79.69238019 -37.84375 65.8984375 C-29.37320434 53.68767342 -24.54176364 40.06763247 -24.03125 25.17578125 C-23.9993457 24.28971191 -23.96744141 23.40364258 -23.93457031 22.49072266 C-23.88028411 20.71875725 -23.84499499 18.9460818 -23.83105469 17.17333984 C-23.68718253 11.66432445 -22.88394021 8.47182645 -19.2265625 4.09375 C-13.67738661 -0.91404288 -7.17890277 -2.92193937 0 0 Z " fill="#EDFCD2" transform="translate(1118.2265625,483.90625)"/>
<path d="M0 0 C5.548125 -0.0825 11.09625 -0.165 16.8125 -0.25 C19.40315308 -0.30462402 19.40315308 -0.30462402 22.04614258 -0.36035156 C34.17328318 -0.51070683 44.00980897 0.93236314 53.05078125 9.74609375 C58.92720318 16.54107462 60.81359702 22.93264041 60.4140625 31.890625 C59.31961977 40.10927037 55.1184805 46.50414374 49 52 C41.73352849 57.02296401 35.6196583 58.15906602 26.85546875 58.09765625 C25.83096619 58.09614563 25.83096619 58.09614563 24.7857666 58.09460449 C22.2529938 58.08940257 19.72024508 58.07544145 17.1875 58.0625 C11.515625 58.041875 5.84375 58.02125 0 58 C0 38.86 0 19.72 0 0 Z " fill="#111F2A" transform="translate(851,856)"/>
<path d="M0 0 C0.33 0 0.66 0 1 0 C3.84613792 15.97844523 6.15045954 31.99986305 8.2487793 48.09057617 C9.17585248 55.16250207 10.17108424 62.19168622 11.50878906 69.19995117 C12.69258181 75.94792285 13.4583755 82.76572818 14.32543945 89.56054688 C14.58042478 91.55109278 14.83898673 93.5411795 15.09765625 95.53125 C15.32207397 97.28791992 15.32207397 97.28791992 15.55102539 99.08007812 C15.92439661 102.05381813 15.92439661 102.05381813 17 105 C17 107.97 17 110.94 17 114 C5.78 114 -5.44 114 -17 114 C-15.87501456 101.6251602 -15.87501456 101.6251602 -15.13964844 97.10253906 C-14.97550949 96.08121887 -14.81137054 95.05989868 -14.64225769 94.00762939 C-14.4664064 92.93776794 -14.29055511 91.86790649 -14.109375 90.765625 C-13.83188164 89.04892609 -13.83188164 89.04892609 -13.54878235 87.29754639 C-12.95263371 83.61446268 -12.35128658 79.93224802 -11.75 76.25 C-11.33871688 73.71230348 -10.9278297 71.17454276 -10.51733398 68.63671875 C-8.92984726 58.83051955 -7.33186898 49.02603951 -5.72904968 39.22233582 C-2.51209958 19.66115376 -2.51209958 19.66115376 0 0 Z " fill="#101E2A" transform="translate(712,884)"/>
<path d="M0 0 C0.33 0 0.66 0 1 0 C1.33 3.3 1.66 6.6 2 10 C1.01 9.67 0.02 9.34 -1 9 C-0.67 6.03 -0.34 3.06 0 0 Z " fill="#56645F" transform="translate(373,934)"/>
</svg>
